<svg xmlns="http://www.w3.org/2000/svg" viewBox="0 0 512 512"><g data-name="25. Culinary Art"><path d="M440 480H128a32 32 0 010-64H440a8 8 0 018 8v48A8 8 0 01440 480zM128 432a16 16 0 000 32H432V432zM336 248H176a8 8 0 01-8-8V158A64 64 0 01195.46 33c28.29-44 92.77-44 121.08 0A64 64 0 01344 158v82A8 8 0 01336 248zM184 232H328V151.42a8 8 0 016.87-7.92 48 48 0 10-20.06-93.65 8 8 0 01-9.27-4 56 56 0 00-99.08 0 8 8 0 01-9.27 4 48 48 0 10-20.06 93.65 8 8 0 016.87 7.92z"/><path d="M352 288H160a8 8 0 01-8-8V240a8 8 0 018-8H352a8 8 0 018 8v40A8 8 0 01352 288zM168 272H344V248H168zM256 208a8 8 0 01-8-8V152a8 8 0 0116 0v48A8 8 0 01256 208zM216 208a8 8 0 01-8-8V152a8 8 0 0116 0v48A8 8 0 01216 208zM296 208a8 8 0 01-8-8V152a8 8 0 0116 0v48A8 8 0 01296 208zM336 328H168a8 8 0 010-16H336a8 8 0 010 16zM304 360H208a8 8 0 010-16h96a8 8 0 010 16z"/><path fill="#eaf2ff" d="M128,56H440a0,0,0,0,1,0,0V440a0,0,0,0,1,0,0H72a0,0,0,0,1,0,0V112A56,56,0,0,1,128,56Z"/><path d="M440,448H72a8,8,0,0,1-8-8V112a64.07,64.07,0,0,1,64-64H440a8,8,0,0,1,8,8V360a8,8,0,0,1-16,0V64H128a48.05,48.05,0,0,0-48,48V432H432V392a8,8,0,0,1,16,0v48A8,8,0,0,1,440,448Z"/><path fill="#c1d1f7" d="M128,504H440V392H128a56,56,0,0,0,0,112Z"/><path fill="#adbeee" d="M73.3,436A56.49,56.49,0,0,0,72,448h0a56,56,0,0,0,56,56H440V480H128A56,56,0,0,1,73.3,436Z"/><path d="M440,512H168a8,8,0,0,1,0-16H432V400H128a48,48,0,0,0,0,96h8a8,8,0,0,1,0,16h-8a64,64,0,0,1,0-128H440a8,8,0,0,1,8,8V504A8,8,0,0,1,440,512Z"/><path fill="#f6edc8" d="M128,472H440V424H128a24,24,0,0,0,0,48Z"/><path fill="#f4dcb5" d="M128,424a24,24,0,0,0-24,24h0a23.92,23.92,0,0,0,3.22,12A24,24,0,0,1,128,448H440V424Z"/><path d="M440,480H128a32,32,0,0,1,0-64H440a8,8,0,0,1,8,8v48A8,8,0,0,1,440,480ZM128,432a16,16,0,0,0,0,32H432V432Z"/><path fill="#f6f6f6" d="M384,96a56,56,0,0,0-71.38-53.84,64,64,0,0,0-113.24,0A56,56,0,1,0,176,151.42V240H336V151.42A56,56,0,0,0,384,96Z"/><path fill="#f6f6f6" d="M384,96a56,56,0,0,1-48,55.42V240H176V151.42A56,56,0,1,1,199.38,42.16a64,64,0,0,1,113.24,0A56,56,0,0,1,384,96Z"/><rect width="160" height="24" x="176" y="216" fill="#dcdcdc"/><path d="M336,248H176a8,8,0,0,1-8-8V158A64,64,0,0,1,195.46,33c28.29-44,92.77-44,121.08,0A64,64,0,0,1,344,158v82A8,8,0,0,1,336,248ZM184,232H328V151.42a8,8,0,0,1,6.87-7.92,48,48,0,1,0-20.06-93.65,8,8,0,0,1-9.27-4,56,56,0,0,0-99.08,0,8,8,0,0,1-9.27,4,48,48,0,1,0-20.06,93.65,8,8,0,0,1,6.87,7.92Z"/><rect width="192" height="40" x="160" y="240" fill="#596060"/><path d="M352 288H160a8 8 0 01-8-8V240a8 8 0 018-8H352a8 8 0 018 8v40A8 8 0 01352 288zM168 272H344V248H168zM256 208a8 8 0 01-8-8V152a8 8 0 0116 0v48A8 8 0 01256 208zM216 208a8 8 0 01-8-8V152a8 8 0 0116 0v48A8 8 0 01216 208zM296 208a8 8 0 01-8-8V152a8 8 0 0116 0v48A8 8 0 01296 208zM336 328H168a8 8 0 010-16H336a8 8 0 010 16zM304 360H208a8 8 0 010-16h96a8 8 0 010 16z"/></g></svg>