<svg width="194" height="72" viewBox="0 0 194 72" fill="none" xmlns="http://www.w3.org/2000/svg">
<path d="M42.9688 52.875H12.5C11.6712 52.875 10.8763 52.5458 10.2903 51.9597C9.70424 51.3737 9.375 50.5788 9.375 49.75C9.375 48.9212 9.70424 48.1263 10.2903 47.5403C10.8763 46.9542 11.6712 46.625 12.5 46.625H42.9688C43.176 46.625 43.3747 46.7073 43.5212 46.8538C43.6677 47.0003 43.75 47.199 43.75 47.4062V52.0938C43.75 52.301 43.6677 52.4997 43.5212 52.6462C43.3747 52.7927 43.176 52.875 42.9688 52.875ZM12.5 48.1875C12.0856 48.1875 11.6882 48.3521 11.3951 48.6451C11.1021 48.9382 10.9375 49.3356 10.9375 49.75C10.9375 50.1644 11.1021 50.5618 11.3951 50.8549C11.6882 51.1479 12.0856 51.3125 12.5 51.3125H42.1875V48.1875H12.5ZM32.8125 30.2188H17.1875C16.9803 30.2188 16.7816 30.1364 16.6351 29.9899C16.4886 29.8434 16.4062 29.6447 16.4062 29.4375V21.4297C14.812 21.0503 13.4305 20.0599 12.5594 18.6718C11.6882 17.2838 11.3971 15.6091 11.7487 14.0085C12.1003 12.4078 13.0666 11.0093 14.4393 10.1142C15.812 9.21907 17.4814 8.8989 19.0879 9.22266C21.8506 4.92578 28.1475 4.92578 30.9121 9.22266C32.5186 8.8989 34.188 9.21907 35.5607 10.1142C36.9334 11.0093 37.8997 12.4078 38.2513 14.0085C38.6029 15.6091 38.3118 17.2838 37.4406 18.6718C36.5695 20.0599 35.188 21.0503 33.5938 21.4297V29.4375C33.5938 29.6447 33.5114 29.8434 33.3649 29.9899C33.2184 30.1364 33.0197 30.2188 32.8125 30.2188ZM17.9688 28.6562H32.0312V20.7871C32.0312 20.599 32.0991 20.4173 32.2223 20.2752C32.3456 20.1331 32.5159 20.0402 32.7021 20.0137C33.3383 19.9224 33.9488 19.7014 34.4959 19.3643C35.043 19.0271 35.515 18.5811 35.8824 18.0539C36.2498 17.5266 36.505 16.9295 36.6319 16.2995C36.7588 15.6696 36.7549 15.0202 36.6203 14.3918C36.4857 13.7635 36.2233 13.1695 35.8495 12.6468C35.4756 12.1241 34.9983 11.6838 34.4471 11.3534C33.896 11.0229 33.2828 10.8093 32.6456 10.7258C32.0084 10.6424 31.3608 10.6908 30.7432 10.8682C30.5704 10.917 30.386 10.9048 30.2211 10.8337C30.0562 10.7625 29.9209 10.6368 29.8379 10.4775C29.3736 9.59669 28.6777 8.8593 27.8251 8.34493C26.9725 7.83055 25.9957 7.5587 25 7.5587C24.0043 7.5587 23.0275 7.83055 22.1749 8.34493C21.3223 8.8593 20.6264 9.59669 20.1621 10.4775C20.0791 10.6368 19.9438 10.7625 19.7789 10.8337C19.614 10.9048 19.4296 10.917 19.2568 10.8682C18.6392 10.6908 17.9916 10.6424 17.3544 10.7258C16.7172 10.8093 16.104 11.0229 15.5529 11.3534C15.0017 11.6838 14.5244 12.1241 14.1505 12.6468C13.7767 13.1695 13.5143 13.7635 13.3797 14.3918C13.2451 15.0202 13.2412 15.6696 13.3681 16.2995C13.495 16.9295 13.7502 17.5266 14.1176 18.0539C14.485 18.5811 14.957 19.0271 15.5041 19.3643C16.0512 19.7014 16.6617 19.9224 17.2979 20.0137C17.4841 20.0402 17.6544 20.1331 17.7777 20.2752C17.9009 20.4173 17.9688 20.599 17.9688 20.7871V28.6562Z" fill="black"/>
<path d="M34.375 34.125H15.625C15.4178 34.125 15.2191 34.0427 15.0726 33.8962C14.9261 33.7497 14.8438 33.551 14.8438 33.3438V29.4375C14.8438 29.2303 14.9261 29.0316 15.0726 28.8851C15.2191 28.7386 15.4178 28.6562 15.625 28.6562H34.375C34.5822 28.6562 34.7809 28.7386 34.9274 28.8851C35.0739 29.0316 35.1562 29.2303 35.1562 29.4375V33.3438C35.1562 33.551 35.0739 33.7497 34.9274 33.8962C34.7809 34.0427 34.5822 34.125 34.375 34.125ZM16.4062 32.5625H33.5938V30.2188H16.4062V32.5625ZM25 26.3125C24.7928 26.3125 24.5941 26.2302 24.4476 26.0837C24.3011 25.9372 24.2188 25.7385 24.2188 25.5312V20.8438C24.2188 20.6365 24.3011 20.4378 24.4476 20.2913C24.5941 20.1448 24.7928 20.0625 25 20.0625C25.2072 20.0625 25.4059 20.1448 25.5524 20.2913C25.6989 20.4378 25.7812 20.6365 25.7812 20.8438V25.5312C25.7812 25.7385 25.6989 25.9372 25.5524 26.0837C25.4059 26.2302 25.2072 26.3125 25 26.3125ZM21.0938 26.3125C20.8865 26.3125 20.6878 26.2302 20.5413 26.0837C20.3948 25.9372 20.3125 25.7385 20.3125 25.5312V20.8438C20.3125 20.6365 20.3948 20.4378 20.5413 20.2913C20.6878 20.1448 20.8865 20.0625 21.0938 20.0625C21.301 20.0625 21.4997 20.1448 21.6462 20.2913C21.7927 20.4378 21.875 20.6365 21.875 20.8438V25.5312C21.875 25.7385 21.7927 25.9372 21.6462 26.0837C21.4997 26.2302 21.301 26.3125 21.0938 26.3125ZM28.9062 26.3125C28.699 26.3125 28.5003 26.2302 28.3538 26.0837C28.2073 25.9372 28.125 25.7385 28.125 25.5312V20.8438C28.125 20.6365 28.2073 20.4378 28.3538 20.2913C28.5003 20.1448 28.699 20.0625 28.9062 20.0625C29.1135 20.0625 29.3122 20.1448 29.4587 20.2913C29.6052 20.4378 29.6875 20.6365 29.6875 20.8438V25.5312C29.6875 25.7385 29.6052 25.9372 29.4587 26.0837C29.3122 26.2302 29.1135 26.3125 28.9062 26.3125ZM32.8125 38.0312H16.4062C16.199 38.0312 16.0003 37.9489 15.8538 37.8024C15.7073 37.6559 15.625 37.4572 15.625 37.25C15.625 37.0428 15.7073 36.8441 15.8538 36.6976C16.0003 36.5511 16.199 36.4688 16.4062 36.4688H32.8125C33.0197 36.4688 33.2184 36.5511 33.3649 36.6976C33.5114 36.8441 33.5938 37.0428 33.5938 37.25C33.5938 37.4572 33.5114 37.6559 33.3649 37.8024C33.2184 37.9489 33.0197 38.0312 32.8125 38.0312ZM29.6875 41.1562H20.3125C20.1053 41.1562 19.9066 41.0739 19.7601 40.9274C19.6136 40.7809 19.5312 40.5822 19.5312 40.375C19.5312 40.1678 19.6136 39.9691 19.7601 39.8226C19.9066 39.6761 20.1053 39.5938 20.3125 39.5938H29.6875C29.8947 39.5938 30.0934 39.6761 30.2399 39.8226C30.3864 39.9691 30.4688 40.1678 30.4688 40.375C30.4688 40.5822 30.3864 40.7809 30.2399 40.9274C30.0934 41.0739 29.8947 41.1562 29.6875 41.1562Z" fill="black"/>
<path d="M12.5 11.4688H42.9688V48.9688H7.03125V16.9375C7.03125 15.4871 7.60742 14.0961 8.63301 13.0705C9.6586 12.0449 11.0496 11.4688 12.5 11.4688V11.4688Z" fill="#EAF2FF"/>
<path d="M42.9688 49.75H7.03125C6.82405 49.75 6.62534 49.6677 6.47882 49.5212C6.33231 49.3747 6.25 49.176 6.25 48.9688V16.9375C6.25181 15.2805 6.91087 13.6918 8.08258 12.5201C9.25429 11.3484 10.843 10.6893 12.5 10.6875H42.9688C43.176 10.6875 43.3747 10.7698 43.5212 10.9163C43.6677 11.0628 43.75 11.2615 43.75 11.4688V41.1562C43.75 41.3635 43.6677 41.5622 43.5212 41.7087C43.3747 41.8552 43.176 41.9375 42.9688 41.9375C42.7615 41.9375 42.5628 41.8552 42.4163 41.7087C42.2698 41.5622 42.1875 41.3635 42.1875 41.1562V12.25H12.5C11.2572 12.2513 10.0657 12.7456 9.18686 13.6244C8.30807 14.5032 7.81379 15.6947 7.8125 16.9375V48.1875H42.1875V44.2812C42.1875 44.074 42.2698 43.8753 42.4163 43.7288C42.5628 43.5823 42.7615 43.5 42.9688 43.5C43.176 43.5 43.3747 43.5823 43.5212 43.7288C43.6677 43.8753 43.75 44.074 43.75 44.2812V48.9688C43.75 49.176 43.6677 49.3747 43.5212 49.5212C43.3747 49.6677 43.176 49.75 42.9688 49.75Z" fill="black"/>
<path d="M12.5 55.2188H42.9688V44.2812H12.5C11.0496 44.2812 9.6586 44.8574 8.63301 45.883C7.60742 46.9086 7.03125 48.2996 7.03125 49.75C7.03125 51.2004 7.60742 52.5914 8.63301 53.617C9.6586 54.6426 11.0496 55.2188 12.5 55.2188V55.2188Z" fill="#C1D1F7"/>
<path d="M7.1582 48.5781C7.07415 48.9631 7.03159 49.356 7.03125 49.75V49.75C7.03125 51.2004 7.60742 52.5914 8.63301 53.617C9.6586 54.6426 11.0496 55.2188 12.5 55.2188H42.9688V52.875H12.5C11.2532 52.875 10.0438 52.449 9.07223 51.6675C8.1007 50.886 7.42538 49.796 7.1582 48.5781V48.5781Z" fill="#ADBEEE"/>
<path d="M42.9688 56H16.4062C16.199 56 16.0003 55.9177 15.8538 55.7712C15.7073 55.6247 15.625 55.426 15.625 55.2188C15.625 55.0115 15.7073 54.8128 15.8538 54.6663C16.0003 54.5198 16.199 54.4375 16.4062 54.4375H42.1875V45.0625H12.5C11.2568 45.0625 10.0645 45.5564 9.18544 46.4354C8.30636 47.3145 7.8125 48.5068 7.8125 49.75C7.8125 50.9932 8.30636 52.1855 9.18544 53.0646C10.0645 53.9436 11.2568 54.4375 12.5 54.4375H13.2812C13.4885 54.4375 13.6872 54.5198 13.8337 54.6663C13.9802 54.8128 14.0625 55.0115 14.0625 55.2188C14.0625 55.426 13.9802 55.6247 13.8337 55.7712C13.6872 55.9177 13.4885 56 13.2812 56H12.5C10.8424 56 9.25268 55.3415 8.08058 54.1694C6.90848 52.9973 6.25 51.4076 6.25 49.75C6.25 48.0924 6.90848 46.5027 8.08058 45.3306C9.25268 44.1585 10.8424 43.5 12.5 43.5H42.9688C43.176 43.5 43.3747 43.5823 43.5212 43.7288C43.6677 43.8753 43.75 44.074 43.75 44.2812V55.2188C43.75 55.426 43.6677 55.6247 43.5212 55.7712C43.3747 55.9177 43.176 56 42.9688 56Z" fill="black"/>
<path d="M12.5 52.0938H42.9688V47.4062H12.5C11.8784 47.4062 11.2823 47.6532 10.8427 48.0927C10.4032 48.5323 10.1562 49.1284 10.1562 49.75C10.1562 50.3716 10.4032 50.9677 10.8427 51.4073C11.2823 51.8468 11.8784 52.0938 12.5 52.0938V52.0938Z" fill="#F6EDC8"/>
<path d="M12.5 47.4062C11.8784 47.4062 11.2823 47.6532 10.8427 48.0927C10.4032 48.5323 10.1563 49.1284 10.1563 49.75V49.75C10.156 50.1615 10.2645 50.5658 10.4707 50.9219C10.6764 50.5656 10.9722 50.2698 11.3284 50.0641C11.6846 49.8584 12.0887 49.7501 12.5 49.75H42.9688V47.4062H12.5Z" fill="#F4DCB5"/>
<path d="M42.9688 52.875H12.5C11.6712 52.875 10.8763 52.5458 10.2903 51.9597C9.70424 51.3737 9.375 50.5788 9.375 49.75C9.375 48.9212 9.70424 48.1263 10.2903 47.5403C10.8763 46.9542 11.6712 46.625 12.5 46.625H42.9688C43.176 46.625 43.3747 46.7073 43.5212 46.8538C43.6677 47.0003 43.75 47.199 43.75 47.4062V52.0938C43.75 52.301 43.6677 52.4997 43.5212 52.6462C43.3747 52.7927 43.176 52.875 42.9688 52.875ZM12.5 48.1875C12.0856 48.1875 11.6882 48.3521 11.3951 48.6451C11.1021 48.9382 10.9375 49.3356 10.9375 49.75C10.9375 50.1644 11.1021 50.5618 11.3951 50.8549C11.6882 51.1479 12.0856 51.3125 12.5 51.3125H42.1875V48.1875H12.5Z" fill="black"/>
<path d="M37.5 15.375C37.4999 14.5286 37.3034 13.6938 36.9259 12.9363C36.5484 12.1788 36.0002 11.5193 35.3245 11.0096C34.6488 10.4999 33.864 10.1541 33.0319 9.9992C32.1998 9.84434 31.3432 9.88472 30.5293 10.1172C29.9988 9.11034 29.2034 8.26748 28.229 7.67952C27.2546 7.09156 26.1381 6.78082 25 6.78082C23.862 6.78082 22.7455 7.09156 21.7711 7.67952C20.7967 8.26748 20.0013 9.11034 19.4707 10.1172C18.75 9.91006 17.9943 9.85341 17.2507 9.95073C16.5071 10.0481 15.7915 10.2973 15.1483 10.6829C14.5051 11.0685 13.9481 11.5823 13.512 12.1923C13.0758 12.8024 12.7697 13.4956 12.6128 14.2289C12.4558 14.9622 12.4514 15.72 12.5998 16.4551C12.7481 17.1902 13.0461 17.887 13.4752 18.502C13.9042 19.1171 14.4552 19.6374 15.0938 20.0305C15.7325 20.4236 16.4451 20.6811 17.1875 20.7871V29.4375H32.8125V20.7871C34.114 20.5992 35.3042 19.9487 36.1651 18.9548C37.026 17.9608 37.4999 16.6899 37.5 15.375V15.375Z" fill="#F6F6F6"/>
<path d="M37.5 15.375C37.4999 16.6899 37.026 17.9608 36.1651 18.9548C35.3042 19.9487 34.114 20.5992 32.8125 20.7871V29.4375H17.1875V20.7871C16.4451 20.6811 15.7325 20.4236 15.0938 20.0305C14.4552 19.6374 13.9042 19.1171 13.4752 18.502C13.0461 17.887 12.7481 17.1902 12.5998 16.4551C12.4514 15.72 12.4558 14.9622 12.6128 14.2289C12.7697 13.4956 13.0758 12.8024 13.512 12.1923C13.9481 11.5823 14.5051 11.0685 15.1483 10.6829C15.7915 10.2973 16.5071 10.0481 17.2507 9.95073C17.9943 9.85341 18.75 9.91006 19.4707 10.1172C20.0013 9.11034 20.7967 8.26748 21.7711 7.67952C22.7455 7.09156 23.862 6.78082 25 6.78082C26.1381 6.78082 27.2546 7.09156 28.229 7.67952C29.2034 8.26748 29.9988 9.11034 30.5293 10.1172C31.3432 9.88472 32.1998 9.84434 33.0319 9.9992C33.864 10.1541 34.6488 10.4999 35.3245 11.0096C36.0002 11.5193 36.5484 12.1788 36.9259 12.9363C37.3034 13.6938 37.4999 14.5286 37.5 15.375V15.375Z" fill="#F6F6F6"/>
<path d="M32.8125 27.0938H17.1875V29.4375H32.8125V27.0938Z" fill="#DCDCDC"/>
<path d="M32.8124 30.2188H17.1874C16.9802 30.2188 16.7815 30.1364 16.635 29.9899C16.4884 29.8434 16.4061 29.6447 16.4061 29.4375V21.4297C14.8119 21.0503 13.4304 20.0599 12.5592 18.6718C11.6881 17.2838 11.397 15.6091 11.7486 14.0085C12.1002 12.4078 13.0665 11.0093 14.4392 10.1142C15.8119 9.21907 17.4813 8.8989 19.0878 9.22266C21.8505 4.92578 28.1474 4.92578 30.912 9.22266C32.5185 8.8989 34.1879 9.21907 35.5606 10.1142C36.9333 11.0093 37.8995 12.4078 38.2512 14.0085C38.6028 15.6091 38.3117 17.2838 37.4405 18.6718C36.5694 20.0599 35.1879 21.0503 33.5936 21.4297V29.4375C33.5936 29.6447 33.5113 29.8434 33.3648 29.9899C33.2183 30.1364 33.0196 30.2188 32.8124 30.2188ZM17.9686 28.6562H32.0311V20.7871C32.0311 20.599 32.099 20.4173 32.2222 20.2752C32.3455 20.1331 32.5158 20.0402 32.702 20.0137C33.3382 19.9224 33.9487 19.7014 34.4958 19.3643C35.0429 19.0271 35.5148 18.5811 35.8823 18.0539C36.2497 17.5266 36.5048 16.9295 36.6318 16.2995C36.7587 15.6696 36.7548 15.0202 36.6202 14.3918C36.4856 13.7635 36.2232 13.1695 35.8493 12.6468C35.4755 12.1241 34.9982 11.6838 34.447 11.3534C33.8959 11.0229 33.2826 10.8093 32.6455 10.7258C32.0083 10.6424 31.3607 10.6908 30.7431 10.8682C30.5702 10.917 30.3859 10.9048 30.221 10.8337C30.0561 10.7625 29.9208 10.6368 29.8378 10.4775C29.3735 9.59669 28.6776 8.8593 27.825 8.34493C26.9724 7.83055 25.9956 7.5587 24.9999 7.5587C24.0042 7.5587 23.0274 7.83055 22.1748 8.34493C21.3222 8.8593 20.6263 9.59669 20.162 10.4775C20.079 10.6368 19.9436 10.7625 19.7788 10.8337C19.6139 10.9048 19.4295 10.917 19.2567 10.8682C18.639 10.6908 17.9915 10.6424 17.3543 10.7258C16.7171 10.8093 16.1039 11.0229 15.5528 11.3534C15.0016 11.6838 14.5243 12.1241 14.1504 12.6468C13.7766 13.1695 13.5142 13.7635 13.3796 14.3918C13.245 15.0202 13.2411 15.6696 13.368 16.2995C13.4949 16.9295 13.7501 17.5266 14.1175 18.0539C14.4849 18.5811 14.9569 19.0271 15.504 19.3643C16.051 19.7014 16.6616 19.9224 17.2977 20.0137C17.4839 20.0402 17.6543 20.1331 17.7776 20.2752C17.9008 20.4173 17.9686 20.599 17.9686 20.7871V28.6562Z" fill="black"/>
<path d="M34.375 29.4375H15.625V33.3438H34.375V29.4375Z" fill="#596060"/>
<path d="M34.375 34.125H15.625C15.4178 34.125 15.2191 34.0427 15.0726 33.8962C14.9261 33.7497 14.8438 33.551 14.8438 33.3438V29.4375C14.8438 29.2303 14.9261 29.0316 15.0726 28.8851C15.2191 28.7386 15.4178 28.6562 15.625 28.6562H34.375C34.5822 28.6562 34.7809 28.7386 34.9274 28.8851C35.0739 29.0316 35.1562 29.2303 35.1562 29.4375V33.3438C35.1562 33.551 35.0739 33.7497 34.9274 33.8962C34.7809 34.0427 34.5822 34.125 34.375 34.125ZM16.4062 32.5625H33.5938V30.2188H16.4062V32.5625ZM25 26.3125C24.7928 26.3125 24.5941 26.2302 24.4476 26.0837C24.3011 25.9372 24.2188 25.7385 24.2188 25.5312V20.8438C24.2188 20.6365 24.3011 20.4378 24.4476 20.2913C24.5941 20.1448 24.7928 20.0625 25 20.0625C25.2072 20.0625 25.4059 20.1448 25.5524 20.2913C25.6989 20.4378 25.7812 20.6365 25.7812 20.8438V25.5312C25.7812 25.7385 25.6989 25.9372 25.5524 26.0837C25.4059 26.2302 25.2072 26.3125 25 26.3125ZM21.0938 26.3125C20.8865 26.3125 20.6878 26.2302 20.5413 26.0837C20.3948 25.9372 20.3125 25.7385 20.3125 25.5312V20.8438C20.3125 20.6365 20.3948 20.4378 20.5413 20.2913C20.6878 20.1448 20.8865 20.0625 21.0938 20.0625C21.301 20.0625 21.4997 20.1448 21.6462 20.2913C21.7927 20.4378 21.875 20.6365 21.875 20.8438V25.5312C21.875 25.7385 21.7927 25.9372 21.6462 26.0837C21.4997 26.2302 21.301 26.3125 21.0938 26.3125ZM28.9062 26.3125C28.699 26.3125 28.5003 26.2302 28.3538 26.0837C28.2073 25.9372 28.125 25.7385 28.125 25.5312V20.8438C28.125 20.6365 28.2073 20.4378 28.3538 20.2913C28.5003 20.1448 28.699 20.0625 28.9062 20.0625C29.1135 20.0625 29.3122 20.1448 29.4587 20.2913C29.6052 20.4378 29.6875 20.6365 29.6875 20.8438V25.5312C29.6875 25.7385 29.6052 25.9372 29.4587 26.0837C29.3122 26.2302 29.1135 26.3125 28.9062 26.3125ZM32.8125 38.0312H16.4062C16.199 38.0312 16.0003 37.9489 15.8538 37.8024C15.7073 37.6559 15.625 37.4572 15.625 37.25C15.625 37.0428 15.7073 36.8441 15.8538 36.6976C16.0003 36.5511 16.199 36.4688 16.4062 36.4688H32.8125C33.0197 36.4688 33.2184 36.5511 33.3649 36.6976C33.5114 36.8441 33.5938 37.0428 33.5938 37.25C33.5938 37.4572 33.5114 37.6559 33.3649 37.8024C33.2184 37.9489 33.0197 38.0312 32.8125 38.0312ZM29.6875 41.1562H20.3125C20.1053 41.1562 19.9066 41.0739 19.7601 40.9274C19.6136 40.7809 19.5312 40.5822 19.5312 40.375C19.5312 40.1678 19.6136 39.9691 19.7601 39.8226C19.9066 39.6761 20.1053 39.5938 20.3125 39.5938H29.6875C29.8947 39.5938 30.0934 39.6761 30.2399 39.8226C30.3864 39.9691 30.4688 40.1678 30.4688 40.375C30.4688 40.5822 30.3864 40.7809 30.2399 40.9274C30.0934 41.0739 29.8947 41.1562 29.6875 41.1562Z" fill="black"/>
<path d="M103.264 53.752L105.376 53.24C106.059 53.24 106.4 53.5813 106.4 54.264C106.357 55.3733 105.781 56.3547 104.672 57.208C103.605 58.104 102.389 58.552 101.024 58.552C99.6587 58.552 98.5707 57.8907 97.76 56.568C96.608 54.648 95.52 51.2133 94.496 46.264C94.0267 43.8747 93.472 41.912 92.832 40.376C91.68 40.76 90.464 40.952 89.184 40.952C87.904 40.952 86.7733 40.696 85.792 40.184C84.8533 39.6293 84.384 38.968 84.384 38.2C84.4693 36.2373 86.048 35.256 89.12 35.256C90.6133 35.256 92.2133 35.9173 93.92 37.24C96.5653 35.2347 97.888 32.44 97.888 28.856C97.888 26.7227 97.4827 24.8453 96.672 23.224C95.8613 21.56 94.7947 20.2587 93.472 19.32C90.8693 17.4853 87.968 16.568 84.768 16.568C84.6827 17.5067 84.5333 19 84.32 21.048C83.8933 25.3147 83.6373 28.6213 83.552 30.968L83.36 41.08C83.36 48.8453 81.824 52.728 78.752 52.728C76.7893 52.728 75.808 51.896 75.808 50.232C75.808 49.8053 76.0853 49.08 76.64 48.056C77.2373 47.032 77.664 45.8587 77.92 44.536C78.176 43.1707 78.4533 39.224 78.752 32.696C79.0507 26.1253 79.456 20.9627 79.968 17.208C77.7067 17.848 75.8507 18.8293 74.4 20.152C72.992 21.4747 72.288 23.032 72.288 24.824C72.288 25.848 72.0533 26.68 71.584 27.32C71.1147 27.9173 70.5387 28.216 69.856 28.216C68.6187 28.216 68 27.5547 68 26.232C68 23.2453 69.1947 20.792 71.584 18.872C74.016 16.9093 77.0027 15.5013 80.544 14.648C81.3973 11.7893 82.592 10.36 84.128 10.36C84.7253 10.36 85.024 11.0427 85.024 12.408C85.024 12.7067 84.9813 13.24 84.896 14.008C85.3653 13.9227 86.2613 13.88 87.584 13.88C88.9067 13.88 90.4 14.072 92.064 14.456C93.728 14.84 95.392 15.5013 97.056 16.44C98.7627 17.336 100.128 18.7227 101.152 20.6C102.176 22.4347 102.688 24.5893 102.688 27.064C102.688 29.5387 102.048 31.8427 100.768 33.976C99.488 36.1093 97.824 37.816 95.776 39.096C97.2267 40.888 98.3573 43.0853 99.168 45.688C100.021 48.2907 100.811 50.2747 101.536 51.64C102.261 53.048 102.837 53.752 103.264 53.752ZM87.008 37.432C87.008 37.7733 87.3067 38.072 87.904 38.328C88.5013 38.584 89.12 38.712 89.76 38.712C90.4427 38.712 91.0613 38.6053 91.616 38.392C90.7627 37.4107 89.7813 36.92 88.672 36.92C87.5627 36.92 87.008 37.0907 87.008 37.432ZM113.183 51.32C110.794 51.32 108.895 50.424 107.487 48.632C106.079 46.7973 105.375 44.728 105.375 42.424C105.375 37.7733 106.356 34.2533 108.319 31.864C110.282 29.4747 112.82 28.28 115.935 28.28C117.386 28.28 118.58 28.6853 119.519 29.496C120.458 30.264 120.927 31.3307 120.927 32.696C120.927 35.256 119.839 37.4107 117.663 39.16C115.53 40.8667 112.906 41.7627 109.791 41.848C109.962 43.512 110.516 44.9627 111.455 46.2C112.436 47.3947 113.567 47.992 114.847 47.992C116.127 47.992 117.279 47.6933 118.303 47.096C119.327 46.4987 120.266 45.6453 121.119 44.536C122.911 42.1893 124.447 39.5227 125.727 36.536C126.068 35.768 126.324 35.2133 126.495 34.872C126.708 34.5307 126.922 34.36 127.135 34.36C127.391 34.36 127.519 34.5307 127.519 34.872C127.519 37.0053 126.218 40.2053 123.615 44.472C120.799 49.0373 117.322 51.32 113.183 51.32ZM109.791 40.312C112.308 39.8853 114.143 39.0747 115.295 37.88C116.49 36.6853 117.087 35.128 117.087 33.208C117.087 31.288 116.468 30.328 115.231 30.328C113.738 30.328 112.479 31.3733 111.455 33.464C110.431 35.512 109.876 37.7947 109.791 40.312ZM133.597 31.416L133.725 30.456C133.725 29.688 133.277 29.304 132.381 29.304C131.528 29.304 130.696 29.88 129.885 31.032C129.074 32.1413 128.669 33.0587 128.669 33.784C128.669 34.5093 128.712 35.0853 128.797 35.512C128.882 35.9387 128.968 36.3013 129.053 36.6C129.181 36.856 129.373 37.176 129.629 37.56C129.885 37.944 130.077 38.2213 130.205 38.392L130.909 39.288C131.208 39.7147 131.421 39.992 131.549 40.12C133.768 38.2853 136.413 36.2373 139.485 33.976C139.656 33.848 139.848 33.784 140.061 33.784C140.488 33.784 140.701 34.0187 140.701 34.488C140.701 34.9573 140.509 35.32 140.125 35.576C137.394 37.3253 134.813 39.224 132.381 41.272C133.32 42.6373 133.789 44.1307 133.789 45.752C133.789 47.3733 133.17 48.76 131.933 49.912C130.696 51.064 129.117 51.64 127.197 51.64C125.277 51.64 124.317 50.7227 124.317 48.888C124.317 47.5653 125.725 45.5387 128.541 42.808C128.328 42.552 127.944 42.1467 127.389 41.592C126.834 40.9947 126.408 40.5253 126.109 40.184C125.853 39.8427 125.533 39.3947 125.149 38.84C124.466 37.7733 124.125 36.6213 124.125 35.384C124.125 32.8667 124.936 30.84 126.557 29.304C128.178 27.7253 129.906 26.936 131.741 26.936C132.893 26.936 133.789 27.256 134.429 27.896C135.069 28.4933 135.389 29.112 135.389 29.752C135.389 31.2027 135.048 31.928 134.365 31.928C133.853 31.928 133.597 31.7573 133.597 31.416ZM129.501 44.024C127.794 45.7307 126.941 47.1173 126.941 48.184C126.941 49.208 127.474 49.72 128.541 49.72C129.181 49.72 129.714 49.464 130.141 48.952C131.08 47.672 130.866 46.0293 129.501 44.024ZM145.246 51.32C142.856 51.32 140.957 50.424 139.549 48.632C138.141 46.7973 137.438 44.728 137.438 42.424C137.438 37.7733 138.419 34.2533 140.382 31.864C142.344 29.4747 144.883 28.28 147.998 28.28C149.448 28.28 150.643 28.6853 151.582 29.496C152.52 30.264 152.99 31.3307 152.99 32.696C152.99 35.256 151.902 37.4107 149.726 39.16C147.592 40.8667 144.968 41.7627 141.854 41.848C142.024 43.512 142.579 44.9627 143.518 46.2C144.499 47.3947 145.63 47.992 146.91 47.992C148.19 47.992 149.342 47.6933 150.366 47.096C151.39 46.4987 152.328 45.6453 153.182 44.536C154.974 42.1893 156.51 39.5227 157.79 36.536C158.131 35.768 158.387 35.2133 158.558 34.872C158.771 34.5307 158.984 34.36 159.198 34.36C159.454 34.36 159.582 34.5307 159.582 34.872C159.582 37.0053 158.28 40.2053 155.678 44.472C152.862 49.0373 149.384 51.32 145.246 51.32ZM141.854 40.312C144.371 39.8853 146.206 39.0747 147.358 37.88C148.552 36.6853 149.15 35.128 149.15 33.208C149.15 31.288 148.531 30.328 147.294 30.328C145.8 30.328 144.542 31.3733 143.518 33.464C142.494 35.512 141.939 37.7947 141.854 40.312ZM158.172 31.096C158.641 30.5413 159.388 29.8373 160.411 28.984C161.436 28.088 162.246 27.64 162.844 27.64C163.441 27.64 163.74 28.4933 163.74 30.2C163.74 31.864 163.292 33.5067 162.396 35.128C162.225 35.896 162.097 37.0053 162.012 38.456C163.249 35.0853 164.486 32.5467 165.724 30.84C166.961 29.1333 168.454 28.28 170.204 28.28C171.996 28.28 173.553 29.0907 174.876 30.712C176.198 32.2907 176.86 34.808 176.86 38.264C176.86 41.6773 175.878 44.7067 173.916 47.352C171.996 49.9973 169.457 51.32 166.3 51.32C164.678 51.32 163.036 50.7227 161.372 49.528C161.372 57.6773 160.902 63.8853 159.964 68.152C159.878 68.536 159.302 69.176 158.236 70.072C157.212 71.0107 156.465 71.48 155.995 71.48C155.483 71.48 155.121 71.1387 154.907 70.456C154.694 69.7733 154.587 69.1333 154.587 68.536C154.587 64.1413 155.484 58.488 157.276 51.576C157.574 47.5653 157.766 43.1707 157.852 38.392C157.98 33.6133 158.086 31.1813 158.172 31.096ZM166.684 49.016C167.921 49.016 169.201 48.1627 170.524 46.456C171.846 44.7067 172.508 42.5733 172.508 40.056C172.508 37.496 172.145 35.4693 171.42 33.976C170.737 32.44 169.798 31.672 168.604 31.672C166.556 31.672 164.23 35.9173 161.628 44.408C161.542 45.6027 161.5 46.5413 161.5 47.224C162.694 48.4187 164.422 49.016 166.684 49.016ZM181.618 19.704C181.618 18.936 182.023 18.2747 182.834 17.72C183.645 17.1653 184.37 16.888 185.01 16.888C186.162 16.888 186.738 17.5493 186.738 18.872C186.738 20.1947 186.397 21.3467 185.714 22.328C185.031 23.2667 184.071 23.736 182.834 23.736C182.023 23.736 181.618 22.392 181.618 19.704ZM183.474 51.32C181.81 51.32 180.551 50.9787 179.698 50.296C179.399 49.9973 179.25 48.9307 179.25 47.096C179.25 45.2613 179.378 42.2107 179.634 37.944C179.933 33.6347 180.189 31.3093 180.402 30.968C180.615 30.6267 181.277 29.9867 182.386 29.048C183.495 28.1093 184.349 27.64 184.946 27.64C185.586 27.64 185.906 28.4507 185.906 30.072C185.906 30.4987 185.778 31.3307 185.522 32.568C185.309 33.8053 185.053 34.7013 184.754 35.256C184.199 36.664 183.922 40.3547 183.922 46.328C183.922 47.48 184.05 48.056 184.306 48.056C185.031 48.0133 186.034 47.1173 187.314 45.368C188.594 43.576 189.853 41.2933 191.09 38.52C192.37 35.7467 193.138 34.36 193.394 34.36C193.693 34.36 193.842 34.5307 193.842 34.872C193.842 36.0667 193.223 37.9653 191.986 40.568C188.615 47.736 185.778 51.32 183.474 51.32Z" fill="black"/>
</svg>
